<svg xmlns="http://www.w3.org/2000/svg" width="900" height="760" viewBox="0 0 900 760">
<rect width="100%" height="100%" fill="white"/>
<text x="450" y="40" font-size="20" font-weight="bold" text-anchor="middle" font-family="Arial">Matriz de Risco 5×5 — EPF Unidade X (12 cenários)</text>
<text x="495.0" y="696.0" font-size="14" text-anchor="middle" font-family="Arial">SEVERIDADE →</text>
<text x="40" y="355.0" font-size="14" text-anchor="middle" font-family="Arial" transform="rotate(-90 40 355.0)">PROBABILIDADE →</text>
<rect x="220" y="80" width="110" height="110" fill="#f1c40f" stroke="white" stroke-width="2"/>
<text x="275.0" y="140.0" font-size="13" text-anchor="middle" font-family="Arial" fill="#222">5</text>
<rect x="330" y="80" width="110" height="110" fill="#e67e22" stroke="white" stroke-width="2"/>
<text x="385.0" y="140.0" font-size="13" text-anchor="middle" font-family="Arial" fill="#222">10</text>
<rect x="440" y="80" width="110" height="110" fill="#e67e22" stroke="white" stroke-width="2"/>
<text x="495.0" y="140.0" font-size="13" text-anchor="middle" font-family="Arial" fill="#222">15</text>
<rect x="550" y="80" width="110" height="110" fill="#e74c3c" stroke="white" stroke-width="2"/>
<text x="605.0" y="140.0" font-size="13" text-anchor="middle" font-family="Arial" fill="#222">20</text>
<rect x="660" y="80" width="110" height="110" fill="#e74c3c" stroke="white" stroke-width="2"/>
<text x="715.0" y="140.0" font-size="13" text-anchor="middle" font-family="Arial" fill="#222">25</text>
<rect x="220" y="190" width="110" height="110" fill="#2ecc71" stroke="white" stroke-width="2"/>
<text x="275.0" y="250.0" font-size="13" text-anchor="middle" font-family="Arial" fill="#222">4</text>
<rect x="330" y="190" width="110" height="110" fill="#f1c40f" stroke="white" stroke-width="2"/>
<text x="385.0" y="250.0" font-size="13" text-anchor="middle" font-family="Arial" fill="#222">8</text>
<rect x="440" y="190" width="110" height="110" fill="#e67e22" stroke="white" stroke-width="2"/>
<text x="495.0" y="250.0" font-size="13" text-anchor="middle" font-family="Arial" fill="#222">12</text>
<rect x="550" y="190" width="110" height="110" fill="#e67e22" stroke="white" stroke-width="2"/>
<text x="605.0" y="250.0" font-size="13" text-anchor="middle" font-family="Arial" fill="#222">16</text>
<rect x="660" y="190" width="110" height="110" fill="#e74c3c" stroke="white" stroke-width="2"/>
<text x="715.0" y="250.0" font-size="13" text-anchor="middle" font-family="Arial" fill="#222">20</text>
<rect x="220" y="300" width="110" height="110" fill="#2ecc71" stroke="white" stroke-width="2"/>
<text x="275.0" y="360.0" font-size="13" text-anchor="middle" font-family="Arial" fill="#222">3</text>
<rect x="330" y="300" width="110" height="110" fill="#f1c40f" stroke="white" stroke-width="2"/>
<text x="385.0" y="360.0" font-size="13" text-anchor="middle" font-family="Arial" fill="#222">6</text>
<rect x="440" y="300" width="110" height="110" fill="#f1c40f" stroke="white" stroke-width="2"/>
<text x="495.0" y="360.0" font-size="13" text-anchor="middle" font-family="Arial" fill="#222">9</text>
<rect x="550" y="300" width="110" height="110" fill="#e67e22" stroke="white" stroke-width="2"/>
<text x="605.0" y="360.0" font-size="13" text-anchor="middle" font-family="Arial" fill="#222">12</text>
<rect x="660" y="300" width="110" height="110" fill="#e67e22" stroke="white" stroke-width="2"/>
<text x="715.0" y="360.0" font-size="13" text-anchor="middle" font-family="Arial" fill="#222">15</text>
<rect x="220" y="410" width="110" height="110" fill="#2ecc71" stroke="white" stroke-width="2"/>
<text x="275.0" y="470.0" font-size="13" text-anchor="middle" font-family="Arial" fill="#222">2</text>
<rect x="330" y="410" width="110" height="110" fill="#2ecc71" stroke="white" stroke-width="2"/>
<text x="385.0" y="470.0" font-size="13" text-anchor="middle" font-family="Arial" fill="#222">4</text>
<rect x="440" y="410" width="110" height="110" fill="#f1c40f" stroke="white" stroke-width="2"/>
<text x="495.0" y="470.0" font-size="13" text-anchor="middle" font-family="Arial" fill="#222">6</text>
<rect x="550" y="410" width="110" height="110" fill="#f1c40f" stroke="white" stroke-width="2"/>
<text x="605.0" y="470.0" font-size="13" text-anchor="middle" font-family="Arial" fill="#222">8</text>
<rect x="660" y="410" width="110" height="110" fill="#e67e22" stroke="white" stroke-width="2"/>
<text x="715.0" y="470.0" font-size="13" text-anchor="middle" font-family="Arial" fill="#222">10</text>
<rect x="220" y="520" width="110" height="110" fill="#2ecc71" stroke="white" stroke-width="2"/>
<text x="275.0" y="580.0" font-size="13" text-anchor="middle" font-family="Arial" fill="#222">1</text>
<rect x="330" y="520" width="110" height="110" fill="#2ecc71" stroke="white" stroke-width="2"/>
<text x="385.0" y="580.0" font-size="13" text-anchor="middle" font-family="Arial" fill="#222">2</text>
<rect x="440" y="520" width="110" height="110" fill="#2ecc71" stroke="white" stroke-width="2"/>
<text x="495.0" y="580.0" font-size="13" text-anchor="middle" font-family="Arial" fill="#222">3</text>
<rect x="550" y="520" width="110" height="110" fill="#2ecc71" stroke="white" stroke-width="2"/>
<text x="605.0" y="580.0" font-size="13" text-anchor="middle" font-family="Arial" fill="#222">4</text>
<rect x="660" y="520" width="110" height="110" fill="#f1c40f" stroke="white" stroke-width="2"/>
<text x="715.0" y="580.0" font-size="13" text-anchor="middle" font-family="Arial" fill="#222">5</text>
<text x="275.0" y="652" font-size="11" text-anchor="middle" font-family="Arial">Insignificante</text>
<text x="385.0" y="652" font-size="11" text-anchor="middle" font-family="Arial">Menor</text>
<text x="495.0" y="652" font-size="11" text-anchor="middle" font-family="Arial">Moderado</text>
<text x="605.0" y="652" font-size="11" text-anchor="middle" font-family="Arial">Maior</text>
<text x="715.0" y="652" font-size="11" text-anchor="middle" font-family="Arial">Catastrófico</text>
<text x="208" y="139.0" font-size="11" text-anchor="end" font-family="Arial">Quase Certo</text>
<text x="208" y="249.0" font-size="11" text-anchor="end" font-family="Arial">Provável</text>
<text x="208" y="359.0" font-size="11" text-anchor="end" font-family="Arial">Possível</text>
<text x="208" y="469.0" font-size="11" text-anchor="end" font-family="Arial">Improvável</text>
<text x="208" y="579.0" font-size="11" text-anchor="end" font-family="Arial">Raro</text>
<circle cx="605.0" cy="337.0" r="13" fill="#1a1a2e" stroke="white" stroke-width="2"/>
<text x="605.0" y="341.0" font-size="11" font-weight="bold" text-anchor="middle" font-family="Arial" fill="white">C1</text>
<circle cx="715.0" cy="447.0" r="13" fill="#1a1a2e" stroke="white" stroke-width="2"/>
<text x="715.0" y="451.0" font-size="11" font-weight="bold" text-anchor="middle" font-family="Arial" fill="white">C2</text>
<circle cx="495.0" cy="227.0" r="13" fill="#1a1a2e" stroke="white" stroke-width="2"/>
<text x="495.0" y="231.0" font-size="11" font-weight="bold" text-anchor="middle" font-family="Arial" fill="white">C3</text>
<circle cx="385.0" cy="227.0" r="13" fill="#1a1a2e" stroke="white" stroke-width="2"/>
<text x="385.0" y="231.0" font-size="11" font-weight="bold" text-anchor="middle" font-family="Arial" fill="white">C4</text>
<circle cx="715.0" cy="557.0" r="13" fill="#1a1a2e" stroke="white" stroke-width="2"/>
<text x="715.0" y="561.0" font-size="11" font-weight="bold" text-anchor="middle" font-family="Arial" fill="white">C5</text>
<circle cx="495.0" cy="337.0" r="13" fill="#1a1a2e" stroke="white" stroke-width="2"/>
<text x="495.0" y="341.0" font-size="11" font-weight="bold" text-anchor="middle" font-family="Arial" fill="white">C6</text>
<circle cx="385.0" cy="337.0" r="13" fill="#1a1a2e" stroke="white" stroke-width="2"/>
<text x="385.0" y="341.0" font-size="11" font-weight="bold" text-anchor="middle" font-family="Arial" fill="white">C7</text>
<circle cx="605.0" cy="447.0" r="13" fill="#1a1a2e" stroke="white" stroke-width="2"/>
<text x="605.0" y="451.0" font-size="11" font-weight="bold" text-anchor="middle" font-family="Arial" fill="white">C8</text>
<circle cx="275.0" cy="117.0" r="13" fill="#1a1a2e" stroke="white" stroke-width="2"/>
<text x="275.0" y="121.0" font-size="11" font-weight="bold" text-anchor="middle" font-family="Arial" fill="white">C9</text>
<circle cx="495.0" cy="447.0" r="13" fill="#1a1a2e" stroke="white" stroke-width="2"/>
<text x="495.0" y="451.0" font-size="11" font-weight="bold" text-anchor="middle" font-family="Arial" fill="white">C10</text>
<circle cx="605.0" cy="227.0" r="13" fill="#1a1a2e" stroke="white" stroke-width="2"/>
<text x="605.0" y="231.0" font-size="11" font-weight="bold" text-anchor="middle" font-family="Arial" fill="white">C11</text>
<circle cx="385.0" cy="447.0" r="13" fill="#1a1a2e" stroke="white" stroke-width="2"/>
<text x="385.0" y="451.0" font-size="11" font-weight="bold" text-anchor="middle" font-family="Arial" fill="white">C12</text>
<rect x="120" y="690" width="18" height="18" fill="#2ecc71"/>
<text x="144" y="704" font-size="12" font-family="Arial">Baixo — Aceitar e monitorar</text>
<rect x="300" y="690" width="18" height="18" fill="#f1c40f"/>
<text x="324" y="704" font-size="12" font-family="Arial">Médio — Mitigar em prazo programado</text>
<rect x="480" y="690" width="18" height="18" fill="#e67e22"/>
<text x="504" y="704" font-size="12" font-family="Arial">Alto — Mitigar com prioridade</text>
<rect x="660" y="690" width="18" height="18" fill="#e74c3c"/>
<text x="684" y="704" font-size="12" font-family="Arial">Crítico — Ação imediata / parada</text>
</svg>