<svg xmlns="http://www.w3.org/2000/svg" width="1400" height="900" viewBox="0 0 1400 900">
<rect width="100%" height="100%" fill="white"/>
<rect x="980" y="810" width="410" height="80" fill="none" stroke="black" stroke-width="2"/>
<text x="990" y="838" font-size="16" font-weight="bold" font-family="Arial">PFD S-02 · EPF Manifold → Booster VFD</text>
<text x="990" y="862" font-size="12" font-family="Arial">Rev. A · ISA-5.1 / ISO 10628</text>
<text x="990" y="880" font-size="11" font-family="Arial">Gerado por Gtasck P&amp;ID Generator</text>
<polyline points="120,360 420,360" fill="none" stroke="black" stroke-width="2"/>
<path d="M 420 360 L 409.7 366.2 L 409.7 353.8 Z" fill="black"/>
<text x="420" y="352" font-size="11" text-anchor="middle" font-family="Arial" font-style="italic">S-02 4"-150#-CS</text>
<rect x="120" y="300" width="60" height="120" rx="30.0" fill="none" stroke="black" stroke-width="2"/>
<text x="120" y="286" font-size="13" font-weight="bold" text-anchor="middle" font-family="Arial">M-01</text>
<text x="120" y="450" font-size="10" text-anchor="middle" font-family="Arial">EPF manifold</text>
<circle cx="420" cy="360" r="18" fill="none" stroke="black" stroke-width="2"/><path d="M 407.4 372.6 L 432.6 360 L 407.4 347.4 Z" fill="black"/>
<text x="420" y="346" font-size="13" font-weight="bold" text-anchor="middle" font-family="Arial">P-01</text>
<text x="420" y="510" font-size="10" text-anchor="middle" font-family="Arial">Booster VFD</text>
<circle cx="260" cy="320" r="14" fill="white" stroke="black" stroke-width="1.5"/><line x1="246" y1="320" x2="274" y2="320" stroke="black" stroke-width="1"/><text x="260" y="316" font-size="9" text-anchor="middle" font-family="Arial">PS</text><text x="260" y="329" font-size="9" text-anchor="middle" font-family="Arial">V102</text>
<circle cx="260" cy="400" r="14" fill="white" stroke="black" stroke-width="1.5"/><line x1="246" y1="400" x2="274" y2="400" stroke="black" stroke-width="1"/><text x="260" y="396" font-size="9" text-anchor="middle" font-family="Arial">LA</text><text x="260" y="409" font-size="9" text-anchor="middle" font-family="Arial">HH102</text>
<circle cx="340" cy="320" r="14" fill="white" stroke="black" stroke-width="1.5"/><line x1="326" y1="320" x2="354" y2="320" stroke="black" stroke-width="1"/><text x="340" y="316" font-size="9" text-anchor="middle" font-family="Arial">ES</text><text x="340" y="329" font-size="9" text-anchor="middle" font-family="Arial">D102</text>
</svg>