<svg xmlns="http://www.w3.org/2000/svg" width="1400" height="900" viewBox="0 0 1400 900">
<rect width="100%" height="100%" fill="white"/>
<rect x="980" y="810" width="410" height="80" fill="none" stroke="black" stroke-width="2"/>
<text x="990" y="838" font-size="16" font-weight="bold" font-family="Arial">PFD S-10 · Compressão → Fuel Gas / Gas Lift / Boscan</text>
<text x="990" y="862" font-size="12" font-family="Arial">Rev. A · ISA-5.1 / ISO 10628</text>
<text x="990" y="880" font-size="11" font-family="Arial">Gerado por Gtasck P&amp;ID Generator</text>
<polyline points="120,360 420,240" fill="none" stroke="black" stroke-width="2"/>
<path d="M 420 240 L 412.8 249.6 L 408.2 238.1 Z" fill="black"/>
<text x="420" y="232" font-size="11" text-anchor="middle" font-family="Arial" font-style="italic">S-10 3"-150#-CS</text>
<polyline points="120,360 420,360" fill="none" stroke="black" stroke-width="2"/>
<path d="M 420 360 L 409.7 366.2 L 409.7 353.8 Z" fill="black"/>
<text x="420" y="352" font-size="11" text-anchor="middle" font-family="Arial" font-style="italic">S-10 3"-150#-CS</text>
<polyline points="120,360 420,480" fill="none" stroke="black" stroke-width="2"/>
<path d="M 420 480 L 408.2 481.9 L 412.8 470.4 Z" fill="black"/>
<text x="420" y="472" font-size="11" text-anchor="middle" font-family="Arial" font-style="italic">S-10 3"-150#-CS</text>
<circle cx="120" cy="360" r="18" fill="none" stroke="black" stroke-width="2"/><path d="M 107.4 372.6 L 132.6 360 L 107.4 347.4 Z" fill="black"/>
<text x="120" y="346" font-size="13" font-weight="bold" text-anchor="middle" font-family="Arial">C-01</text>
<text x="120" y="510" font-size="10" text-anchor="middle" font-family="Arial">Compressor</text>
<rect x="420" y="240" width="60" height="120" rx="30.0" fill="none" stroke="black" stroke-width="2"/>
<text x="420" y="226" font-size="13" font-weight="bold" text-anchor="middle" font-family="Arial">FG-01</text>
<text x="420" y="390" font-size="10" text-anchor="middle" font-family="Arial">Fuel gas</text>
<rect x="420" y="360" width="60" height="120" rx="30.0" fill="none" stroke="black" stroke-width="2"/>
<text x="420" y="346" font-size="13" font-weight="bold" text-anchor="middle" font-family="Arial">GL-01</text>
<text x="420" y="510" font-size="10" text-anchor="middle" font-family="Arial">Gas lift</text>
<rect x="420" y="480" width="60" height="120" rx="30.0" fill="none" stroke="black" stroke-width="2"/>
<text x="420" y="466" font-size="13" font-weight="bold" text-anchor="middle" font-family="Arial">BX-01</text>
<text x="420" y="630" font-size="10" text-anchor="middle" font-family="Arial">Boscan export</text>
<circle cx="260" cy="320" r="14" fill="white" stroke="black" stroke-width="1.5"/><line x1="246" y1="320" x2="274" y2="320" stroke="black" stroke-width="1"/><text x="260" y="316" font-size="9" text-anchor="middle" font-family="Arial">PS</text><text x="260" y="329" font-size="9" text-anchor="middle" font-family="Arial">V110</text>
<circle cx="340" cy="320" r="14" fill="white" stroke="black" stroke-width="1.5"/><line x1="326" y1="320" x2="354" y2="320" stroke="black" stroke-width="1"/><text x="340" y="316" font-size="9" text-anchor="middle" font-family="Arial">ES</text><text x="340" y="329" font-size="9" text-anchor="middle" font-family="Arial">D110</text>
<circle cx="260" cy="400" r="14" fill="white" stroke="black" stroke-width="1.5"/><line x1="246" y1="400" x2="274" y2="400" stroke="black" stroke-width="1"/><text x="260" y="396" font-size="9" text-anchor="middle" font-family="Arial">AS</text><text x="260" y="409" font-size="9" text-anchor="middle" font-family="Arial">110</text>
</svg>